<?xml version="1.0" standalone="no"?>
<!DOCTYPE svg PUBLIC "-//W3C//DTD SVG 20010904//EN"
 "http://www.w3.org/TR/2001/REC-SVG-20010904/DTD/svg10.dtd">
<svg version="1.0" xmlns="http://www.w3.org/2000/svg"
 width="352.000000pt" height="68.000000pt" viewBox="0 0 352.000000 68.000000"
 preserveAspectRatio="xMidYMid meet">
<metadata>
Created by potrace 1.10, written by Peter Selinger 2001-2011
</metadata>
<g transform="translate(0.000000,68.000000) scale(0.100000,-0.100000)"
fill="#ffff" stroke="none">
<path d="M591 534 c-12 -19 -21 -38 -21 -43 0 -4 -14 -26 -31 -49 -16 -22 -31
-45 -31 -49 -2 -15 -23 -43 -33 -43 -16 0 -193 -191 -210 -226 -19 -41 -19
-74 0 -74 21 0 39 38 26 54 -6 7 -8 16 -4 19 11 12 23 8 23 -8 0 -8 5 -15 10
-15 6 0 10 6 10 14 0 8 3 16 8 18 4 2 28 27 52 57 25 30 58 68 73 85 16 17 33
41 38 54 4 12 14 22 21 22 7 0 19 9 26 20 13 21 137 83 188 94 63 13 58 -8
-21 -82 -42 -40 -81 -72 -86 -72 -5 0 -9 -11 -9 -25 0 -20 -8 -28 -40 -41 -22
-9 -40 -20 -40 -24 0 -5 -10 -12 -22 -15 -36 -11 -98 -76 -98 -102 0 -21 5
-23 44 -23 25 0 48 5 51 10 3 6 16 10 27 10 11 0 27 8 35 18 37 46 93 132 86
132 -4 0 8 11 27 25 19 14 40 25 47 25 15 0 95 36 256 117 60 30 112 52 115
49 3 -3 -22 -32 -55 -64 -33 -33 -63 -66 -66 -75 -4 -10 -11 -17 -16 -17 -17
0 -171 -110 -171 -122 0 -4 -8 -8 -17 -8 -27 -1 -64 -36 -57 -54 6 -16 44 -23
44 -8 0 4 23 25 52 47 28 22 61 49 73 60 26 25 104 77 129 88 10 4 16 13 13
21 -3 7 16 35 42 63 40 43 70 64 131 93 21 10 19 40 -3 54 -14 9 -21 7 -30 -5
-7 -9 -23 -20 -36 -24 -14 -4 -67 -29 -119 -56 -53 -27 -101 -49 -109 -49 -7
0 -16 -7 -19 -15 -4 -8 -14 -15 -23 -15 -16 0 -33 -8 -104 -48 -21 -12 -47
-22 -58 -22 -19 0 -18 4 12 39 19 22 39 40 44 40 14 2 43 44 51 75 4 19 2 27
-11 32 -21 9 -150 -31 -187 -57 -42 -30 -81 -20 -43 11 8 7 26 34 39 61 19 37
22 49 11 53 -8 3 -22 -9 -34 -30z m-157 -266 c-4 -7 -16 -19 -25 -26 -10 -7
-28 -30 -40 -52 -22 -38 -44 -56 -53 -42 -5 9 102 132 116 132 5 0 6 -6 2 -12z
m186 -39 c0 -22 -41 -68 -88 -98 -72 -46 -108 -41 -57 8 14 13 25 27 25 32 0
5 6 9 13 9 6 1 30 14 52 30 44 32 55 36 55 19z"/>
<path d="M3380 544 c0 -17 22 -14 28 4 2 7 -3 12 -12 12 -9 0 -16 -7 -16 -16z"/>
<path d="M2577 517 c-15 -6 -26 -16 -24 -21 7 -20 32 -16 62 9 26 21 27 24 10
24 -11 -1 -32 -6 -48 -12z"/>
<path d="M1375 495 c-27 -13 -53 -24 -57 -25 -15 0 -180 -81 -176 -85 7 -7 66
15 115 42 23 13 48 23 55 23 7 0 31 9 52 21 21 11 43 18 48 17 26 -9 -145
-142 -227 -176 -53 -23 -125 -76 -125 -93 0 -22 26 -32 50 -19 11 6 31 25 45
43 35 48 52 44 48 -9 -4 -40 -2 -44 21 -50 14 -3 33 -3 42 0 20 7 8 27 -14 24
-14 -2 -17 6 -17 46 l0 49 75 53 c170 119 212 210 65 139z"/>
<path d="M1970 507 c-14 -6 -27 -14 -30 -17 -3 -3 -23 -19 -45 -35 -22 -17
-44 -36 -48 -42 -4 -7 -13 -13 -20 -13 -7 0 -18 -9 -24 -19 -13 -20 -148 -91
-174 -91 -8 0 -20 -5 -26 -11 -6 -6 -33 -10 -60 -10 -82 3 -97 2 -130 -5 -21
-4 -33 -2 -33 5 0 15 56 42 114 55 52 12 75 36 34 36 -23 0 -95 -24 -151 -50
-26 -13 -45 -49 -34 -67 3 -5 27 -6 54 -3 26 3 61 2 76 -3 32 -11 110 9 206
50 30 13 56 21 59 18 3 -3 -4 -19 -17 -35 -34 -47 -11 -65 45 -35 18 9 57 15
104 15 41 0 93 5 115 11 52 13 54 13 92 -2 52 -21 145 1 286 69 4 2 7 -8 7
-22 0 -19 5 -26 19 -26 19 0 111 36 111 43 0 7 -55 -5 -67 -15 -7 -6 -20 -8
-28 -4 -24 9 5 46 76 96 32 23 57 46 53 51 -3 6 0 9 7 7 8 -1 16 1 19 6 3 5
-5 11 -17 12 -17 3 -37 -11 -75 -50 -50 -51 -75 -66 -221 -130 -42 -19 -128
-32 -152 -22 -14 5 -13 10 7 37 25 34 76 59 117 59 21 -1 14 -8 -39 -35 -73
-39 -37 -38 41 1 54 27 77 50 62 65 -21 21 -193 -48 -193 -77 0 -20 -67 -39
-182 -51 -63 -6 -72 3 -37 36 12 11 18 24 14 30 -8 14 -35 14 -35 1 0 -5 -9
-10 -19 -10 -11 0 -23 -4 -26 -10 -3 -5 0 -7 9 -4 8 3 20 3 26 -1 17 -10 -8
-35 -35 -35 -12 0 -29 -9 -36 -20 -9 -13 -18 -17 -27 -11 -17 11 9 57 53 93
41 33 134 98 141 98 10 0 84 63 84 72 0 11 -20 9 -50 -5z"/>
<path d="M2998 509 c-10 -5 -18 -18 -18 -28 0 -25 -37 -70 -67 -82 -25 -9 -23
-29 2 -29 22 0 135 110 135 131 0 21 -24 25 -52 8z"/>
<path d="M3095 415 c-95 -35 -161 -67 -149 -72 6 -2 41 10 78 27 37 16 80 30
94 30 l27 0 -30 -25 c-16 -13 -36 -24 -43 -25 -7 0 -27 -7 -44 -16 -52 -27
-155 -52 -155 -38 0 7 6 10 14 7 7 -3 13 -1 13 5 0 6 -5 12 -11 14 -8 3 -5 10
6 21 17 17 16 18 -11 11 -34 -8 -64 -32 -64 -50 0 -7 -18 -29 -40 -50 -22 -21
-40 -44 -40 -50 0 -29 24 -23 59 15 21 23 47 41 59 41 11 0 24 5 27 10 12 20
23 9 30 -29 6 -35 10 -40 41 -45 39 -8 139 8 195 31 64 25 66 10 6 -51 -56
-56 -68 -76 -45 -76 10 0 37 22 92 77 27 27 62 90 54 98 -3 3 -25 -1 -49 -8
-118 -38 -148 -45 -199 -44 -53 2 -55 3 -55 30 0 24 6 31 35 41 117 42 208
102 197 129 -8 21 -17 20 -92 -8z"/>
<path d="M3360 405 c-15 -18 -6 -45 14 -45 23 0 42 40 25 51 -19 12 -25 11
-39 -6z"/>
<path d="M2752 403 c45 -7 41 -29 -15 -70 -29 -21 -53 -41 -55 -45 -2 -5 -15
-8 -28 -8 -29 0 -64 -16 -64 -30 0 -16 17 -12 90 24 103 51 138 81 132 111 -4
22 -9 25 -46 24 -28 -2 -33 -3 -14 -6z"/>
<path d="M2640 381 c-30 -11 -70 -22 -87 -26 -18 -4 -33 -11 -33 -17 0 -11 31
-5 77 14 32 13 28 12 70 22 18 4 35 12 38 17 8 13 -2 11 -65 -10z"/>
<path d="M1074 354 c-18 -14 -18 -15 6 -8 31 8 50 24 29 24 -8 0 -24 -7 -35
-16z"/>
</g>
</svg>
